<svg xmlns="http://www.w3.org/2000/svg" width="70.56mm" height="7.89mm" viewBox="0 0 200 22.37"><defs><style>.a{fill:#fff;}</style></defs><title>karen-millen</title><path class="a" d="M13.43,1.53H10.59L2.53,10.87h0V1.53H0V21.14H2.5V11.82h0l8,9.31h3.24l-8.67-10Zm105.12,0-5.22,10.74c-.85,1.72-1.77,3.6-2.44,5.26h-.06c-.7-1.66-1.71-3.63-2.5-5.23L103.08,1.53h-1.59L99.87,21.14h2.23l.79-9.5c.12-1.32.25-3.14.3-4.73h.06c.7,1.57,1.56,3.67,2.26,5.05l5.31,10.41L115.93,12c.7-1.41,1.68-3.61,2.32-5.11h.06c.06,1.54.18,3.32.31,4.8l.79,9.5h2.38L120.14,1.53ZM15.27,21.14h2.47l2.14-5.28h7.9L30,21.14h2.53L23.88,0Zm11.64-7.27H20.72l2.14-5.41a26.64,26.64,0,0,0,.94-2.75h.06c.28.92.61,2,.92,2.75ZM47,6.94c0-3.53-2.93-5.41-5.8-5.41H35.56v19.6H38V12.35h2.66L47,21.14h3.11l-6.75-9.19A5.14,5.14,0,0,0,47,6.94Zm-6.19,3.32H38V3.71h2.72c2,0,3.66,1.17,3.66,3.29S42.7,10.26,40.78,10.26ZM56.1,12.38h6.5V10.2H56.1V3.72h7.81V1.53H53.59V21.14H65V19H56.1Zm71.26,8.75h2.52V1.53h-2.52Zm11.73-19.6h-2.5v19.6h11.32V19h-8.82Zm15.09,0h-2.5v19.6H163V19h-8.82Zm15.05,10.85h6.5V10.2h-6.5V3.71H177V1.53H166.73v19.6h11.41V19h-8.91ZM197.5,1.52v9.85c0,1.53,0,3.25.06,4.88l-.06,0c-1.25-1.56-3-3.59-4.24-5l-8.69-9.79h-1.73V21.1h2.5V10.79c0-1.63,0-3.38-.06-5.16l.06,0c1.34,1.63,3.08,3.68,4.6,5.4L200,22.28V1.52ZM83.74,11.37c0,1.53,0,3.25.06,4.88l-.06,0c-1.25-1.56-3-3.59-4.24-5L70.82,1.52H69.08V21.1h2.5V10.79c0-1.63,0-3.38-.06-5.16l.06,0c1.34,1.63,3.08,3.68,4.6,5.4L86.24,22.28V1.52h-2.5Z" transform="translate(0)"/></svg>